<?xml version="1.0" encoding="utf-8"?>
<!-- Generator: Adobe Illustrator 22.1.0, SVG Export Plug-In . SVG Version: 6.00 Build 0)  -->
<svg version="1.1" id="Layer_1" xmlns="http://www.w3.org/2000/svg" xmlns:xlink="http://www.w3.org/1999/xlink" x="0px" y="0px"
	 viewBox="0 0 134.9 30" style="enable-background:new 0 0 134.9 30;" xml:space="preserve">
<style type="text/css">
	.st0{fill:#595959;}
	.st1{fill:#66CC00;}
</style>
<g>
	<path class="st0" d="M16.3,21.6h-2.4v-13h2.4V21.6z"/>
	<path class="st0" d="M21.3,13.5c0.2-0.2,0.4-0.4,0.6-0.5c0.2-0.2,0.4-0.3,0.7-0.4c0.2-0.1,0.5-0.2,0.7-0.3c0.3-0.1,0.6-0.1,0.9-0.1
		c0.5,0,1,0.1,1.3,0.3s0.7,0.4,1,0.7s0.5,0.7,0.6,1.1c0.1,0.4,0.2,0.9,0.2,1.4v5.9h-2.2v-5.9c0-0.6-0.1-1-0.4-1.3S24,14,23.5,14
		c-0.4,0-0.7,0.1-1.1,0.3c-0.3,0.2-0.7,0.4-1,0.7v6.7h-2.2v-9.2h1.4c0.3,0,0.5,0.1,0.6,0.4L21.3,13.5z"/>
	<path class="st0" d="M32.1,8.2v13.4h-2.2V8.2H32.1z"/>
	<path class="st0" d="M37.3,9.7c0,0.2,0,0.4-0.1,0.5s-0.2,0.3-0.3,0.4s-0.3,0.2-0.5,0.3c-0.2,0.1-0.4,0.1-0.6,0.1
		c-0.2,0-0.4,0-0.5-0.1c-0.2-0.1-0.3-0.2-0.4-0.3s-0.2-0.3-0.3-0.4c-0.1-0.2-0.1-0.3-0.1-0.5c0-0.2,0-0.4,0.1-0.6
		c0.1-0.2,0.2-0.3,0.3-0.5s0.3-0.2,0.4-0.3s0.4-0.1,0.5-0.1c0.2,0,0.4,0,0.6,0.1c0.2,0.1,0.3,0.2,0.5,0.3s0.2,0.3,0.3,0.5
		S37.3,9.5,37.3,9.7z M36.9,12.4v9.2h-2.2v-9.2H36.9z"/>
	<path class="st0" d="M41.7,13.5c0.2-0.2,0.4-0.4,0.6-0.5c0.2-0.2,0.4-0.3,0.7-0.4c0.2-0.1,0.5-0.2,0.7-0.3c0.3-0.1,0.6-0.1,0.9-0.1
		c0.5,0,1,0.1,1.3,0.3c0.4,0.2,0.7,0.4,1,0.7c0.3,0.3,0.5,0.7,0.6,1.1s0.2,0.9,0.2,1.4v5.9h-2.2v-5.9c0-0.6-0.1-1-0.4-1.3
		c-0.3-0.3-0.7-0.5-1.2-0.5c-0.4,0-0.7,0.1-1.1,0.3c-0.3,0.2-0.7,0.4-1,0.7v6.7h-2.2v-9.2h1.4c0.3,0,0.5,0.1,0.6,0.4L41.7,13.5z"/>
	<path class="st0" d="M51.9,17.3c0,0.5,0.1,0.9,0.3,1.2c0.1,0.3,0.3,0.6,0.5,0.9s0.5,0.4,0.8,0.5s0.6,0.2,1,0.2c0.4,0,0.7,0,0.9-0.1
		s0.5-0.2,0.7-0.3c0.2-0.1,0.4-0.2,0.5-0.3c0.1-0.1,0.3-0.1,0.4-0.1c0.2,0,0.3,0.1,0.4,0.2l0.6,0.8c-0.2,0.3-0.5,0.5-0.8,0.7
		s-0.6,0.4-1,0.5c-0.3,0.1-0.7,0.2-1,0.2s-0.7,0.1-1,0.1c-0.6,0-1.2-0.1-1.8-0.3c-0.6-0.2-1-0.5-1.4-0.9s-0.7-0.9-1-1.5
		c-0.2-0.6-0.4-1.3-0.4-2.1c0-0.6,0.1-1.2,0.3-1.8c0.2-0.6,0.5-1,0.9-1.4c0.4-0.4,0.8-0.7,1.4-1c0.5-0.2,1.2-0.4,1.9-0.4
		c0.6,0,1.1,0.1,1.6,0.3c0.5,0.2,0.9,0.5,1.3,0.8c0.4,0.4,0.6,0.8,0.8,1.3c0.2,0.5,0.3,1.1,0.3,1.8c0,0.3,0,0.6-0.1,0.7
		c-0.1,0.1-0.2,0.2-0.4,0.2H51.9z M56.1,15.9c0-0.3,0-0.6-0.1-0.8c-0.1-0.3-0.2-0.5-0.4-0.7c-0.2-0.2-0.4-0.3-0.6-0.5
		c-0.2-0.1-0.5-0.2-0.9-0.2c-0.6,0-1.1,0.2-1.5,0.5c-0.4,0.4-0.6,0.9-0.7,1.6H56.1z"/>
	<path class="st0" d="M76.5,8.6l-5.3,13h-2.2l-5.3-13h1.9c0.2,0,0.4,0.1,0.5,0.2s0.2,0.2,0.3,0.4l3.1,7.9c0.1,0.3,0.2,0.5,0.3,0.9
		c0.1,0.3,0.2,0.6,0.3,1c0.1-0.3,0.1-0.7,0.2-1s0.2-0.6,0.3-0.9l3.1-7.9c0-0.1,0.1-0.3,0.3-0.4c0.1-0.1,0.3-0.2,0.5-0.2H76.5z"/>
	<path class="st0" d="M80.7,9.7c0,0.2,0,0.4-0.1,0.5c-0.1,0.2-0.2,0.3-0.3,0.4c-0.1,0.1-0.3,0.2-0.5,0.3c-0.2,0.1-0.4,0.1-0.6,0.1
		c-0.2,0-0.4,0-0.5-0.1c-0.2-0.1-0.3-0.2-0.4-0.3s-0.2-0.3-0.3-0.4s-0.1-0.3-0.1-0.5c0-0.2,0-0.4,0.1-0.6s0.2-0.3,0.3-0.5
		s0.3-0.2,0.4-0.3s0.4-0.1,0.5-0.1c0.2,0,0.4,0,0.6,0.1s0.3,0.2,0.5,0.3c0.1,0.1,0.2,0.3,0.3,0.5C80.7,9.3,80.7,9.5,80.7,9.7z
		 M80.4,12.4v9.2h-2.2v-9.2H80.4z"/>
	<path class="st0" d="M84.7,17.3c0,0.5,0.1,0.9,0.3,1.2c0.1,0.3,0.3,0.6,0.5,0.9s0.5,0.4,0.8,0.5s0.6,0.2,1,0.2c0.4,0,0.7,0,0.9-0.1
		c0.3-0.1,0.5-0.2,0.7-0.3s0.4-0.2,0.5-0.3c0.1-0.1,0.3-0.1,0.4-0.1c0.2,0,0.3,0.1,0.4,0.2l0.6,0.8c-0.2,0.3-0.5,0.5-0.8,0.7
		c-0.3,0.2-0.6,0.4-1,0.5c-0.3,0.1-0.7,0.2-1,0.2c-0.3,0-0.7,0.1-1,0.1c-0.6,0-1.2-0.1-1.8-0.3s-1-0.5-1.4-0.9
		c-0.4-0.4-0.7-0.9-1-1.5c-0.2-0.6-0.4-1.3-0.4-2.1c0-0.6,0.1-1.2,0.3-1.8c0.2-0.6,0.5-1,0.9-1.4s0.8-0.7,1.4-1
		c0.5-0.2,1.2-0.4,1.9-0.4c0.6,0,1.1,0.1,1.6,0.3c0.5,0.2,0.9,0.5,1.3,0.8c0.4,0.4,0.6,0.8,0.8,1.3c0.2,0.5,0.3,1.1,0.3,1.8
		c0,0.3,0,0.6-0.1,0.7c-0.1,0.1-0.2,0.2-0.4,0.2H84.7z M89,15.9c0-0.3,0-0.6-0.1-0.8c-0.1-0.3-0.2-0.5-0.4-0.7
		c-0.2-0.2-0.4-0.3-0.6-0.5c-0.2-0.1-0.5-0.2-0.9-0.2c-0.6,0-1.1,0.2-1.5,0.5c-0.4,0.4-0.6,0.9-0.7,1.6H89z"/>
	<path class="st0" d="M106,12.4l-2.9,9.2h-1.8c-0.2,0-0.3-0.1-0.4-0.4l-1.7-5.3c-0.1-0.2-0.1-0.4-0.1-0.5c0-0.2-0.1-0.4-0.1-0.5
		c0,0.2-0.1,0.4-0.1,0.5s-0.1,0.4-0.1,0.5L97,21.2c-0.1,0.3-0.2,0.4-0.5,0.4h-1.7l-2.9-9.2h1.8c0.2,0,0.3,0,0.4,0.1
		c0.1,0.1,0.2,0.2,0.2,0.3l1.3,4.9c0.1,0.3,0.1,0.5,0.2,0.8c0.1,0.3,0.1,0.5,0.1,0.8c0.1-0.3,0.1-0.5,0.2-0.8
		c0.1-0.3,0.2-0.5,0.2-0.8l1.5-4.9c0-0.1,0.1-0.2,0.2-0.3c0.1-0.1,0.2-0.1,0.4-0.1h1c0.2,0,0.3,0,0.4,0.1c0.1,0.1,0.2,0.2,0.2,0.3
		l1.5,4.9c0.1,0.3,0.2,0.5,0.2,0.8c0.1,0.3,0.1,0.5,0.2,0.8c0.1-0.5,0.2-1,0.3-1.6l1.4-4.9c0-0.1,0.1-0.2,0.2-0.3
		c0.1-0.1,0.2-0.1,0.4-0.1H106z"/>
	<path class="st0" d="M109.1,17.3c0,0.5,0.1,0.9,0.3,1.2c0.1,0.3,0.3,0.6,0.5,0.9s0.5,0.4,0.8,0.5s0.6,0.2,1,0.2
		c0.4,0,0.7,0,0.9-0.1s0.5-0.2,0.7-0.3c0.2-0.1,0.4-0.2,0.5-0.3c0.1-0.1,0.3-0.1,0.4-0.1c0.2,0,0.3,0.1,0.4,0.2l0.6,0.8
		c-0.2,0.3-0.5,0.5-0.8,0.7s-0.6,0.4-1,0.5c-0.3,0.1-0.7,0.2-1,0.2s-0.7,0.1-1,0.1c-0.6,0-1.2-0.1-1.8-0.3c-0.6-0.2-1-0.5-1.4-0.9
		s-0.7-0.9-1-1.5c-0.2-0.6-0.4-1.3-0.4-2.1c0-0.6,0.1-1.2,0.3-1.8c0.2-0.6,0.5-1,0.9-1.4c0.4-0.4,0.8-0.7,1.4-1
		c0.5-0.2,1.2-0.4,1.9-0.4c0.6,0,1.1,0.1,1.6,0.3c0.5,0.2,0.9,0.5,1.3,0.8c0.4,0.4,0.6,0.8,0.8,1.3c0.2,0.5,0.3,1.1,0.3,1.8
		c0,0.3,0,0.6-0.1,0.7c-0.1,0.1-0.2,0.2-0.4,0.2H109.1z M113.4,15.9c0-0.3,0-0.6-0.1-0.8c-0.1-0.3-0.2-0.5-0.4-0.7
		c-0.2-0.2-0.4-0.3-0.6-0.5c-0.2-0.1-0.5-0.2-0.9-0.2c-0.6,0-1.1,0.2-1.5,0.5c-0.4,0.4-0.6,0.9-0.7,1.6H113.4z"/>
	<path class="st0" d="M119.6,14c0.3-0.6,0.6-1,1-1.3c0.4-0.3,0.9-0.5,1.4-0.5c0.4,0,0.8,0.1,1,0.3l-0.1,1.7c0,0.1-0.1,0.2-0.1,0.2
		c-0.1,0-0.1,0.1-0.2,0.1c-0.1,0-0.2,0-0.4,0c-0.2,0-0.3,0-0.5,0c-0.2,0-0.5,0-0.7,0.1s-0.4,0.2-0.5,0.3c-0.2,0.1-0.3,0.3-0.4,0.5
		c-0.1,0.2-0.2,0.4-0.3,0.7v5.7h-2.2v-9.2h1.3c0.2,0,0.4,0,0.5,0.1c0.1,0.1,0.2,0.2,0.2,0.4L119.6,14z"/>
</g>
</svg>
