<?xml version="1.0" encoding="UTF-8"?>
<svg id="Ebene_1" data-name="Ebene 1" xmlns="http://www.w3.org/2000/svg"    
   width="536.36475"
   height="150.31003"
   viewBox="0 0 4057.86 1361.41">
  <path d="m4011.93,792.96c-22.84-43.88-52.79-81.37-89.05-111.48-38.37-31.8-77.07-54.41-121.82-71.21-43.51-16.34-125.54-34.38-129.01-35.14l-190.69-43.14c-22.65-5.66-47.91-13.25-75.09-22.57-25.18-8.61-48.48-19.58-69.32-32.63-20.73-12.93-35.79-25.99-44.95-40.73-9.88-15.9-14.26-33.41-15.57-52.99-1.48-22.1,5.69-50.8,16.92-68.14,12.45-19.25,28.5-34.44,49.07-46.43,22.53-13.14,47.71-22.68,74.87-28.36,29.12-6.1,58.23-9.19,86.52-9.19,36.35,0,71.01,4.39,103.03,13.06,29.97,8.13,56.74,21,79.54,38.23,22.09,16.74,39.35,37.56,52.69,63.59,9.88,19.36,16.53,42.02,19.71,67.31l5.61,44.51h243.48l-4.57-55.08c-4.45-53.61-18.98-108.1-40.9-153.42-25.94-53.59-61.54-99.24-105.82-135.71-43.8-36.08-95.06-63.05-152.33-80.18-55.55-16.55-116.07-24.93-179.92-24.93-55.26,0-111.68,6.58-167.7,19.55-57.6,13.39-110.57,34.62-157.47,63.09-42.69,25.94-78.79,59.53-107.65,99.98-89.95-94.55-215.48-153.43-354.25-153.43-152.55,0-284.69,99.14-371.92,208.87-87.23-109.74-219.37-208.87-371.92-208.87s-281.25,67.14-372.04,173.17c-90.78-106.03-223.86-173.17-372.03-173.17s-284.7,99.14-371.93,208.87c-87.23-109.74-219.37-208.87-371.92-208.87C232.58,37.54,10.56,264.95,10.56,544.49v771.3h246v-771.3c0-148.32,111.67-260.96,248.93-260.96s248.93,117.06,248.93,260.96v771.3h246v-771.3c0-143.9,111.67-260.96,248.93-260.96s248.93,117.06,248.93,260.96v771.3h246.22v-771.3c0-143.9,111.67-260.96,248.93-260.96s248.93,117.06,248.93,260.96v771.3h246v-771.3c0-143.9,111.67-260.96,248.93-260.96s248.93,117.06,248.93,260.96v320.39c0,29.13,5.24,87.82,10.86,116.4,24.35,123.85,79.21,201.81,160.08,263.33,94.5,71.96,218.05,108.46,367.2,108.46,58.02,0,117.65-6.53,177.24-19.39,61.91-13.42,118.41-35.98,167.96-67.07,51.01-31.98,93.52-74.05,126.35-125.01,34.13-53,51.44-117.14,51.44-190.63,0-59.63-11.9-112.79-35.37-158Zm-779.86-96.24c-32.26-15.33-61.56-33.36-87.31-53.84-35.51-28.21-63.64-63.26-83.6-104.13-20.09-41.02-30.27-91.13-30.27-148.95,0-68.72,16.03-129.21,47.63-179.76,4.1-6.57,8.41-12.95,12.87-19.19,86.96,91.4,140.68,216.13,140.68,353.53v152.33Zm548.8,337.15c-15.16,23.31-36.93,40.58-62.84,55.38-27.1,15.49-56.94,26.62-88.69,33.09-33.65,6.89-66.66,10.38-98.17,10.38-85.12,0-153.72-20.82-209.71-63.65-49.43-37.78-76.25-88.58-84.42-159.92h0c-3.24-29.49-4.86-59.14-4.86-88.8v-123.52c9.45,4.49,19.13,8.78,29.08,12.8,41.47,16.76,87.35,31.65,136.34,44.28l.82.21.83.19,184.36,40.97c30.01,7.18,60.18,15.91,89.67,25.95,26.97,9.23,49.58,18.41,71.75,34.3,17.61,12.62,31.62,26.4,42.71,43.39,9.8,15,15.22,35.48,14.14,61.19-1.26,30.25-5.65,50.17-21.01,73.78Z" style="stroke-width: 0px;"/>
</svg>