<?xml version="1.0" encoding="utf-8"?>
<!-- Generator: Adobe Illustrator 22.1.0, SVG Export Plug-In . SVG Version: 6.00 Build 0)  -->
<svg version="1.1" id="Layer_1" xmlns="http://www.w3.org/2000/svg" xmlns:xlink="http://www.w3.org/1999/xlink" x="0px" y="0px"
	 viewBox="0 0 220 30" style="enable-background:new 0 0 220 30;" xml:space="preserve">
<style type="text/css">
	.st0{fill:#595959;}
	.st1{fill:#66CC00;}
</style>
<g>
	<g>
		<path class="st0" d="M14.5,11.8c0.9,0,1.6,0.1,2.3,0.3s1.2,0.5,1.6,0.9c0.4,0.4,0.7,0.8,0.9,1.3c0.2,0.5,0.3,1.1,0.3,1.7
			c0,0.6-0.1,1.2-0.3,1.7c-0.2,0.5-0.5,1-0.9,1.4s-0.9,0.7-1.6,0.9s-1.4,0.3-2.2,0.3h-1.8v4.6h-2.4v-13H14.5z M14.5,18.4
			c0.4,0,0.8-0.1,1.2-0.2c0.3-0.1,0.6-0.3,0.8-0.5c0.2-0.2,0.4-0.5,0.5-0.8c0.1-0.3,0.2-0.6,0.2-1c0-0.3-0.1-0.7-0.2-0.9
			c-0.1-0.3-0.3-0.5-0.5-0.7c-0.2-0.2-0.5-0.3-0.8-0.5s-0.7-0.2-1.2-0.2h-1.8v4.7H14.5z"/>
		<path class="st0" d="M25.3,15.4c0.7,0,1.3,0.1,1.9,0.3c0.6,0.2,1,0.5,1.4,0.9c0.4,0.4,0.7,0.9,0.9,1.5s0.3,1.2,0.3,2
			c0,0.7-0.1,1.4-0.3,2c-0.2,0.6-0.5,1.1-0.9,1.5c-0.4,0.4-0.9,0.7-1.4,1C26.7,24.9,26,25,25.3,25c-0.7,0-1.3-0.1-1.9-0.3
			c-0.6-0.2-1-0.5-1.4-1s-0.7-0.9-0.9-1.5c-0.2-0.6-0.3-1.2-0.3-2c0-0.7,0.1-1.4,0.3-2s0.5-1.1,0.9-1.5c0.4-0.4,0.9-0.7,1.4-0.9
			C24,15.6,24.7,15.4,25.3,15.4z M25.3,23.3c0.8,0,1.3-0.3,1.7-0.8c0.4-0.5,0.6-1.3,0.6-2.3c0-1-0.2-1.8-0.6-2.3
			c-0.4-0.5-0.9-0.8-1.7-0.8c-0.8,0-1.4,0.3-1.7,0.8c-0.4,0.5-0.6,1.3-0.6,2.3c0,1,0.2,1.7,0.6,2.3S24.6,23.3,25.3,23.3z"/>
		<path class="st0" d="M44.9,15.6L42,24.8h-1.8c-0.2,0-0.3-0.1-0.4-0.4l-1.7-5.3c-0.1-0.2-0.1-0.4-0.1-0.5c0-0.2-0.1-0.4-0.1-0.5
			c0,0.2-0.1,0.4-0.1,0.5s-0.1,0.4-0.1,0.5l-1.7,5.3c-0.1,0.3-0.2,0.4-0.5,0.4h-1.7l-2.9-9.2h1.8c0.2,0,0.3,0,0.4,0.1
			c0.1,0.1,0.2,0.2,0.2,0.3l1.3,4.9c0.1,0.3,0.1,0.5,0.2,0.8c0.1,0.3,0.1,0.5,0.1,0.8c0.1-0.3,0.1-0.5,0.2-0.8
			c0.1-0.3,0.2-0.5,0.2-0.8l1.5-4.9c0-0.1,0.1-0.2,0.2-0.3c0.1-0.1,0.2-0.1,0.4-0.1h1c0.2,0,0.3,0,0.4,0.1c0.1,0.1,0.2,0.2,0.2,0.3
			l1.5,4.9c0.1,0.3,0.2,0.5,0.2,0.8c0.1,0.3,0.1,0.5,0.2,0.8c0.1-0.5,0.2-1,0.3-1.6l1.4-4.9c0-0.1,0.1-0.2,0.2-0.3
			c0.1-0.1,0.2-0.1,0.4-0.1H44.9z"/>
		<path class="st0" d="M48,20.5c0,0.5,0.1,0.9,0.3,1.2c0.1,0.3,0.3,0.6,0.5,0.9s0.5,0.4,0.8,0.5s0.6,0.2,1,0.2s0.7,0,0.9-0.1
			s0.5-0.2,0.7-0.3c0.2-0.1,0.4-0.2,0.5-0.3c0.1-0.1,0.3-0.1,0.4-0.1c0.2,0,0.3,0.1,0.4,0.2l0.6,0.8c-0.2,0.3-0.5,0.5-0.8,0.7
			s-0.6,0.4-1,0.5c-0.3,0.1-0.7,0.2-1,0.2c-0.3,0-0.7,0.1-1,0.1c-0.6,0-1.2-0.1-1.8-0.3c-0.6-0.2-1-0.5-1.4-0.9s-0.7-0.9-1-1.5
			c-0.2-0.6-0.4-1.3-0.4-2.1c0-0.6,0.1-1.2,0.3-1.8c0.2-0.6,0.5-1,0.9-1.4s0.8-0.7,1.4-1c0.5-0.2,1.2-0.4,1.9-0.4
			c0.6,0,1.1,0.1,1.6,0.3c0.5,0.2,0.9,0.5,1.3,0.8c0.4,0.4,0.6,0.8,0.8,1.3c0.2,0.5,0.3,1.1,0.3,1.8c0,0.3,0,0.6-0.1,0.7
			c-0.1,0.1-0.2,0.2-0.4,0.2H48z M52.3,19.1c0-0.3,0-0.6-0.1-0.8c-0.1-0.3-0.2-0.5-0.4-0.7c-0.2-0.2-0.4-0.3-0.6-0.5
			c-0.2-0.1-0.5-0.2-0.9-0.2c-0.6,0-1.1,0.2-1.5,0.5c-0.4,0.4-0.6,0.9-0.7,1.6H52.3z"/>
		<path class="st0" d="M58.5,17.2c0.3-0.6,0.6-1,1-1.3c0.4-0.3,0.9-0.5,1.4-0.5c0.4,0,0.8,0.1,1,0.3l-0.1,1.7c0,0.1-0.1,0.2-0.1,0.2
			c-0.1,0-0.1,0.1-0.2,0.1c-0.1,0-0.2,0-0.4,0c-0.2,0-0.3,0-0.5,0c-0.2,0-0.5,0-0.7,0.1c-0.2,0.1-0.4,0.2-0.5,0.3
			c-0.2,0.1-0.3,0.3-0.4,0.5c-0.1,0.2-0.2,0.4-0.3,0.7v5.7h-2.2v-9.2h1.3c0.2,0,0.4,0,0.5,0.1c0.1,0.1,0.2,0.2,0.2,0.4L58.5,17.2z"
			/>
		<path class="st0" d="M65.1,20.5c0,0.5,0.1,0.9,0.3,1.2c0.1,0.3,0.3,0.6,0.5,0.9c0.2,0.2,0.5,0.4,0.8,0.5s0.6,0.2,1,0.2
			c0.4,0,0.7,0,0.9-0.1c0.3-0.1,0.5-0.2,0.7-0.3s0.4-0.2,0.5-0.3s0.3-0.1,0.4-0.1c0.2,0,0.3,0.1,0.4,0.2l0.6,0.8
			c-0.2,0.3-0.5,0.5-0.8,0.7c-0.3,0.2-0.6,0.4-1,0.5c-0.3,0.1-0.7,0.2-1,0.2c-0.3,0-0.7,0.1-1,0.1c-0.6,0-1.2-0.1-1.8-0.3
			s-1-0.5-1.4-0.9s-0.7-0.9-1-1.5c-0.2-0.6-0.4-1.3-0.4-2.1c0-0.6,0.1-1.2,0.3-1.8c0.2-0.6,0.5-1,0.9-1.4c0.4-0.4,0.8-0.7,1.4-1
			c0.5-0.2,1.2-0.4,1.9-0.4c0.6,0,1.1,0.1,1.6,0.3c0.5,0.2,0.9,0.5,1.3,0.8c0.4,0.4,0.6,0.8,0.8,1.3c0.2,0.5,0.3,1.1,0.3,1.8
			c0,0.3,0,0.6-0.1,0.7c-0.1,0.1-0.2,0.2-0.4,0.2H65.1z M69.4,19.1c0-0.3,0-0.6-0.1-0.8c-0.1-0.3-0.2-0.5-0.4-0.7
			c-0.2-0.2-0.4-0.3-0.6-0.5C68,17.1,67.7,17,67.4,17c-0.6,0-1.1,0.2-1.5,0.5c-0.4,0.4-0.6,0.9-0.7,1.6H69.4z"/>
		<path class="st0" d="M81.5,11.5v13.4h-1.4c-0.3,0-0.5-0.1-0.6-0.4l-0.2-0.9c-0.4,0.4-0.8,0.8-1.3,1c-0.5,0.3-1,0.4-1.7,0.4
			c-0.5,0-1-0.1-1.4-0.3s-0.8-0.5-1.1-0.9c-0.3-0.4-0.5-0.9-0.7-1.5c-0.2-0.6-0.2-1.3-0.2-2c0-0.7,0.1-1.3,0.3-1.9
			c0.2-0.6,0.5-1.1,0.8-1.5c0.3-0.4,0.8-0.8,1.2-1c0.5-0.2,1-0.4,1.6-0.4c0.5,0,1,0.1,1.3,0.2c0.4,0.2,0.7,0.4,1,0.7v-4.9H81.5z
			 M79.3,18c-0.3-0.3-0.5-0.5-0.8-0.6s-0.6-0.2-1-0.2c-0.3,0-0.6,0.1-0.9,0.2c-0.3,0.1-0.5,0.3-0.7,0.6c-0.2,0.3-0.3,0.6-0.4,1
			s-0.2,0.9-0.2,1.4c0,0.5,0,1,0.1,1.4s0.2,0.7,0.4,0.9c0.2,0.2,0.4,0.4,0.6,0.5s0.5,0.2,0.8,0.2c0.5,0,0.9-0.1,1.2-0.3
			c0.3-0.2,0.6-0.5,0.9-0.8V18z"/>
		<path class="st0" d="M91.2,16.7c0.4-0.4,0.8-0.7,1.2-0.9c0.5-0.2,1-0.3,1.6-0.3c0.5,0,1,0.1,1.4,0.3s0.8,0.5,1.1,0.9
			c0.3,0.4,0.5,0.9,0.7,1.4s0.2,1.2,0.2,1.9c0,0.8-0.1,1.4-0.3,2c-0.2,0.6-0.5,1.1-0.8,1.6s-0.8,0.8-1.2,1c-0.5,0.2-1,0.4-1.6,0.4
			c-0.3,0-0.5,0-0.8-0.1c-0.2-0.1-0.5-0.1-0.6-0.2c-0.2-0.1-0.4-0.2-0.5-0.4c-0.2-0.1-0.3-0.3-0.5-0.5L91,24.4
			c0,0.2-0.1,0.3-0.2,0.3c-0.1,0.1-0.2,0.1-0.4,0.1H89V11.5h2.2V16.7z M91.2,22.4c0.3,0.3,0.5,0.5,0.8,0.6s0.6,0.2,0.9,0.2
			c0.3,0,0.6-0.1,0.9-0.2c0.3-0.1,0.5-0.3,0.7-0.6c0.2-0.3,0.3-0.6,0.4-1c0.1-0.4,0.2-0.9,0.2-1.5c0-1-0.2-1.7-0.5-2.2
			c-0.3-0.5-0.8-0.7-1.4-0.7c-0.4,0-0.8,0.1-1.1,0.3c-0.3,0.2-0.6,0.5-0.9,0.8V22.4z"/>
		<path class="st0" d="M107.7,15.6l-5,11.8c-0.1,0.2-0.2,0.3-0.3,0.4c-0.1,0.1-0.3,0.1-0.5,0.1h-1.7l1.7-3.7l-3.7-8.5h2
			c0.2,0,0.3,0,0.4,0.1c0.1,0.1,0.2,0.2,0.2,0.3l2,4.8c0.1,0.2,0.1,0.3,0.2,0.5s0.1,0.3,0.1,0.5c0.1-0.2,0.1-0.3,0.2-0.5
			c0.1-0.2,0.1-0.3,0.2-0.5l1.9-4.8c0-0.1,0.1-0.2,0.2-0.3c0.1-0.1,0.2-0.1,0.4-0.1H107.7z"/>
	</g>
	<g>
		<g>
			<g>
				<polygon class="st1" points="137,2.3 131.2,20.1 128.8,11.8 124.8,11.8 129.3,24.9 133.5,24.9 141.5,2.3 				"/>
				<polygon class="st1" points="122,20.1 119.2,11.8 115.2,11.8 119.8,24.9 124.4,24.9 126.2,19.3 124.2,13.5 				"/>
			</g>
			<polygon class="st1" points="170,17.7 176.4,11.8 171.1,11.8 167,15.7 167,5.9 163.2,5.9 163.2,24.9 167,24.9 167,19.6 
				172.1,24.9 177.2,24.9 			"/>
			<path class="st1" d="M161.9,15.7c0,0-0.5-0.3-1.8-0.3c-1,0-1.8,0.6-2.1,1c-0.3,0.4-0.7,1.3-0.7,2.7v5.8h-4v-13h4l0,1.9h0.1
				c0.7-1.4,1.8-2.1,3.2-2.1c0.9,0,1.3,0.3,1.3,0.3V15.7z"/>
			<g>
				<path class="st1" d="M144.9,25.2c-4.1,0-7.3-2.6-7.3-6.8c0-4.2,3.1-6.8,7.3-6.8c4.1,0,7.3,2.6,7.3,6.8
					C152.2,22.6,149,25.2,144.9,25.2z M144.9,14.9c-1.9,0-3,1.5-3,3.4c0,1.9,1.1,3.4,3,3.4c1.9,0,3-1.5,3-3.4
					C147.9,16.4,146.8,14.9,144.9,14.9z"/>
			</g>
			<path class="st1" d="M210.3,24.9h-4.1l-0.1-1.3c-0.6,0.6-1.6,1.7-3.7,1.7c-2.3,0-4.8-1.2-4.8-4.2c0-2.9,2.7-3.9,5.1-4l3.3-0.1
				v-0.3c0-1.4-1-2.1-2.7-2.1c-1.7,0-3.3,0.7-4,1.2l-1.1-2.8c1.1-0.6,3.2-1.3,5.6-1.3c2.4,0,3.9,0.6,4.9,1.5c1,1,1.6,2.2,1.6,4.4
				V24.9z M206.1,19.1l-2.1,0.1c-1.3,0.1-2.1,0.6-2.1,1.6c0,1,0.8,1.6,2,1.6c1.1,0,1.9-0.7,2.2-1.2V19.1z"/>
			<path class="st1" d="M197.7,11.8l-5.4,13h-4l-5.3-13h4.4l3,8.3l2.9-8.3H197.7z"/>
			<path class="st1" d="M181.9,24.9h-4.2v-13h4.2V24.9z"/>
			<polygon class="st1" points="177.6,10.7 177.6,5.9 182.8,5.9 			"/>
		</g>
		<g>
			<path class="st1" d="M211.1,11.8c-0.5,0-0.9-0.4-0.9-0.9c0-0.5,0.4-0.9,0.9-0.9c0.5,0,0.9,0.4,0.9,0.9
				C212,11.4,211.6,11.8,211.1,11.8z M211.1,10.1c-0.4,0-0.8,0.3-0.8,0.8s0.3,0.8,0.8,0.8c0.4,0,0.8-0.3,0.8-0.8
				S211.5,10.1,211.1,10.1z M211.5,11.4h-0.3l-0.2-0.4H211v0.4h-0.2v-1.1h0.4c0.2,0,0.4,0.1,0.4,0.3c0,0.2-0.1,0.3-0.2,0.3
				L211.5,11.4z M211.1,10.5H211v0.3h0.1c0.1,0,0.2,0,0.2-0.1C211.3,10.5,211.2,10.5,211.1,10.5z"/>
		</g>
	</g>
</g>
</svg>
