<?xml version="1.0" encoding="utf-8"?>
<!--
Copyright 2019 Workiva Inc.

Licensed under the Apache License, Version 2.0 (the "License");
you may not use this file except in compliance with the License.
You may obtain a copy of the License at

http://www.apache.org/licenses/LICENSE-2.0

Unless required by applicable law or agreed to in writing, software
distributed under the License is distributed on an "AS IS" BASIS,
WITHOUT WARRANTIES OR CONDITIONS OF ANY KIND, either express or implied.
See the License for the specific language governing permissions and
limitations under the License.
-->
<!-- Generator: Adobe Illustrator 22.1.0, SVG Export Plug-In . SVG Version: 6.00 Build 0)  -->
<svg version="1.1" id="Layer_1" xmlns="http://www.w3.org/2000/svg" xmlns:xlink="http://www.w3.org/1999/xlink" x="0px" y="0px"
	 width="1522.2px" height="360px" viewBox="0 0 1522.2 360" style="enable-background:new 0 0 1522.2 360;" xml:space="preserve">
<style type="text/css">
	.st0{fill:#66CC00;}
</style>
<g>
	<g>
		<g>
			<polygon class="st0" points="342.7,0 251.1,279.6 212.5,149.8 150.5,149.8 221.8,354.6 287.8,354.6 412.4,0 			"/>
			<polygon class="st0" points="106.6,279.6 62.8,149.8 0,149.8 71.3,354.6 143.5,354.6 172.9,267.1 141.1,176 			"/>
		</g>
		<polygon class="st0" points="860.4,242.2 960.9,149.8 877.2,149.8 812.7,210.4 812.7,57.4 753.5,57.4 753.5,354.6 812.7,354.6 
			812.7,272.7 892.7,354.6 972.8,354.6 		"/>
		<path class="st0" d="M732.8,210.9c0,0-8-5.5-28.4-5.5c-15,0-27.8,8.8-32.8,15.5c-5,6.6-10.4,19.9-10.4,42.8v91h-62.1V149.8h62.1
			l-0.4,29.1h0.8c11.6-22.4,28.7-33.1,50.7-33.1c13.7,0,20.5,4.1,20.5,4.1V210.9z"/>
		<g>
			<path class="st0" d="M466,360c-65.1,0-114.4-40.5-114.4-106.9c0-66.4,49.3-107.3,114.4-107.3c65.1,0,114,40.9,114,107.3
				C580,319.5,531.1,360,466,360z M466,198.4c-29.6,0-46.8,23-46.8,53.4c0,30.5,17.1,53.4,46.8,53.4c29.2,0,46.8-23,46.8-53.4
				C512.8,221.4,495.2,198.4,466,198.4z"/>
		</g>
		<path class="st0" d="M1493.6,354.7h-63.9l-1.3-21c-8.8,8.8-25.5,26.3-58.9,26.3c-36.3,0-74.7-19.6-74.7-65.5
			c0-45.9,42.2-61.4,80.1-63l51.8-2.1v-4.6c0-21.7-15.4-33-42.2-33c-26.3,0-52.6,11.7-63,18.4l-17.5-43.4
			c17.5-8.8,49.7-20.9,88.1-20.9c38.4,0,60.5,8.8,76.8,23.8c15.9,15,24.6,35.1,24.6,69.7V354.7z M1427.3,264.8l-33,2.1
			c-20.5,0.8-32.6,9.6-32.6,25c0,15.9,12.9,25.5,31.3,25.5c17.9,0,30.1-11.7,34.2-18.8V264.8z"/>
		<path class="st0" d="M1294.9,149.8l-84.4,204.9h-62.3l-83.9-204.9h69.4l46.5,129.6l46.1-129.6H1294.9z"/>
		<path class="st0" d="M1046.6,354.6h-66.5V149.8h66.5V354.6z"/>
		<polygon class="st0" points="980.1,132.5 980.1,57.4 1061.6,57.4 		"/>
	</g>
	<g>
		<path class="st0" d="M1505.3,149.3c-8,0-14.3-6.2-14.3-14.3c0-8.1,6.3-14.3,14.3-14.3c8.1,0,14.3,6.2,14.3,14.3
			C1519.6,143,1513.3,149.3,1505.3,149.3z M1505.3,122.8c-6.8,0-12.2,5.3-12.2,12.2c0,6.8,5.3,12.2,12.2,12.2
			c6.9,0,12.2-5.3,12.2-12.2C1517.4,128.1,1512.2,122.8,1505.3,122.8z M1512.4,143.3h-4.1l-3.5-6.6h-1.7v6.6h-3.4v-16.8h5.9
			c3.7,0,6,1.9,6,5c0,3.2-2.1,4.4-3.4,4.7L1512.4,143.3z M1505.1,129.4h-1.9v4.6h1.9c1.6,0,3-0.4,3-2.3
			C1508.1,129.8,1506.7,129.4,1505.1,129.4z"/>
	</g>
</g>
</svg>
