<svg xmlns="http://www.w3.org/2000/svg" viewBox="0 0 1024 1024">
<path fill="#333333" d="M955.555 571.773c2.621-19.602 4.445-39.453 4.445-59.773 0-20.316-1.82-40.164-4.441-59.762l-135.039-20.777c-7.484-28.691-18.84-55.594-33.5-80.555l80.859-110.262c-24.305-31.828-52.707-60.223-84.531-84.531l-110.27 80.859c-24.957-14.652-51.855-26.008-80.543-33.492l-20.773-135.039c-19.598-2.621-39.445-4.441-59.762-4.441-20.32 0-40.172 1.824-59.773 4.445l-20.781 135.043c-28.688 7.488-55.582 18.84-80.539 33.492l-110.262-80.859c-31.828 24.309-60.223 52.703-84.531 84.531l80.859 110.27c-14.652 24.957-26.008 51.855-33.492 80.543l-135.039 20.773c-2.621 19.598-4.441 39.445-4.441 59.762 0 20.32 1.824 40.172 4.445 59.773l135.043 20.781c7.484 28.68 18.828 55.566 33.48 80.52l-80.855 110.27c24.305 31.828 52.703 60.23 84.531 84.535l110.262-80.859c24.957 14.656 51.852 26.008 80.539 33.496l20.781 135.039c19.602 2.621 39.453 4.445 59.773 4.445 20.316 0 40.164-1.82 59.762-4.441l20.773-135.039c28.691-7.484 55.59-18.84 80.547-33.492l110.266 80.855c31.828-24.305 60.223-52.699 84.531-84.527l-80.859-110.262c14.652-24.957 26.004-51.852 33.492-80.539l135.043-20.781zM511.543 703.066c-105.91 0-191.766-85.855-191.766-191.766s85.855-191.77 191.766-191.77 191.766 85.859 191.766 191.77-85.855 191.766-191.766 191.766z"></path>
</svg>