<?xml version="1.0" standalone="no"?>
<!DOCTYPE svg PUBLIC "-//W3C//DTD SVG 1.1//EN" "http://www.w3.org/Graphics/SVG/1.1/DTD/svg11.dtd" >
<svg xmlns="http://www.w3.org/2000/svg" xmlns:xlink="http://www.w3.org/1999/xlink" version="1.1" viewBox="-10 0 1034 1024">
  <g transform="matrix(1 0 0 -1 0 960)">
   <path fill="currentColor"
d="M512 683q-68 0 -103 -21t-46 -33l32 -74q16 15 41 26t57 11t49.5 -11.5t17.5 -33.5q0 -15 -9.5 -25t-21.5 -18l-42 -31q-22 -16 -33 -36t-10 -53v-43h95v15.5t8 27.5q8 9 26.5 29t36.5 37q21 19 36 40t15 65q0 50 -41 89t-108 39v0zM555 235q0 -27 -19 -45.5t-45 -18.5
q-27 0 -45.5 18.5t-18.5 45.5q0 26 18.5 45t45.5 19q26 0 45 -19t19 -45zM512 853q88 0 166 -33q78 -34 136 -92t91 -135q34 -78 34 -166q0 -89 -34 -166q-33 -78 -91 -136t-136 -91q-78 -34 -166 -34t-166 34q-78 33 -136 91t-91 136q-34 77 -34 166q0 88 34 166
q33 77 91 135t136 92q78 33 166 33v0zM512 896q-97 0 -183 -37q-85 -37 -149 -100.5t-100 -149.5q-37 -85 -37 -182q0 -98 37 -183q36 -86 100 -149.5t149 -100.5q86 -37 183 -37t183 37q85 37 149 100.5t100 149.5q37 85 37 183q0 97 -37 182q-36 86 -100 149.5t-149 100.5
q-86 37 -183 37v0z" />
  </g>

</svg>
