<?xml version="1.0" standalone="no"?>
<!DOCTYPE svg PUBLIC "-//W3C//DTD SVG 1.1//EN" "http://www.w3.org/Graphics/SVG/1.1/DTD/svg11.dtd" >
<svg xmlns="http://www.w3.org/2000/svg" xmlns:xlink="http://www.w3.org/1999/xlink" version="1.1" viewBox="-10 0 1034 1024">
  <g transform="matrix(1 0 0 -1 0 960)">
   <path fill="currentColor"
d="M768 832q26 0 45 -19t19 -45v-640q0 -26 -19 -45t-45 -19h-512q-26 0 -45 19t-19 45v640q0 26 19 45t45 19h512zM768 896h-512q-53 0 -90.5 -37.5t-37.5 -90.5v-640q0 -53 37.5 -90.5t90.5 -37.5h512q53 0 90.5 37.5t37.5 90.5v640q0 53 -37.5 90.5t-90.5 37.5v0z
M321 320h-2q-26 0 -44.5 18.5t-18.5 44.5v2q0 26 18.5 44.5t44.5 18.5h2q26 0 44.5 -18.5t18.5 -44.5v-2q0 -26 -18.5 -44.5t-44.5 -18.5zM513 320h-2q-26 0 -44.5 18.5t-18.5 44.5v2q0 26 18.5 44.5t44.5 18.5h2q26 0 44.5 -18.5t18.5 -44.5v-2q0 -26 -18.5 -44.5
t-44.5 -18.5zM705 320h-2q-26 0 -44.5 18.5t-18.5 44.5v2q0 26 18.5 44.5t44.5 18.5h2q26 0 44.5 -18.5t18.5 -44.5v-2q0 -26 -18.5 -44.5t-44.5 -18.5zM321 128h-2q-26 0 -44.5 18.5t-18.5 44.5v2q0 26 18.5 44.5t44.5 18.5h2q26 0 44.5 -18.5t18.5 -44.5v-2
q0 -26 -18.5 -44.5t-44.5 -18.5zM513 128h-2q-26 0 -44.5 18.5t-18.5 44.5v2q0 26 18.5 44.5t44.5 18.5h2q26 0 44.5 -18.5t18.5 -44.5v-2q0 -26 -18.5 -44.5t-44.5 -18.5zM705 128h-2q-26 0 -44.5 18.5t-18.5 44.5v2q0 26 18.5 44.5t44.5 18.5h2q26 0 44.5 -18.5
t18.5 -44.5v-2q0 -26 -18.5 -44.5t-44.5 -18.5zM320 704h384v-128h-384v128zM256 704v-128q0 -27 18.5 -45.5t45.5 -18.5h384q27 0 45.5 18.5t18.5 45.5v128q0 27 -18.5 45.5t-45.5 18.5h-384q-27 0 -45.5 -18.5t-18.5 -45.5v0z" />
  </g>

</svg>
