<?xml version="1.0" standalone="no"?>
<!DOCTYPE svg PUBLIC "-//W3C//DTD SVG 1.1//EN" "http://www.w3.org/Graphics/SVG/1.1/DTD/svg11.dtd" >
<svg xmlns="http://www.w3.org/2000/svg" xmlns:xlink="http://www.w3.org/1999/xlink" version="1.1" viewBox="-10 0 1044 1024">
  <g transform="matrix(1 0 0 -1 0 960)">
   <path fill="currentColor"
d="M512 896q93 0 174 -35q82 -36 142.5 -96.5t96.5 -142.5q35 -81 35 -174t-35 -174q-36 -82 -96.5 -142.5t-142.5 -96.5q-81 -35 -174 -35t-174 35q-82 36 -142.5 96.5t-96.5 142.5q-35 81 -35 174t35 174q36 82 96.5 142.5t142.5 96.5q81 35 174 35zM512 960
q-106 0 -199 -40q-94 -40 -163.5 -109.5t-109.5 -163.5q-40 -93 -40 -199t40 -199q40 -94 109.5 -163.5t163.5 -109.5q93 -40 199 -40t199 40q94 40 163.5 109.5t109.5 163.5q40 93 40 199t-40 199q-40 94 -109.5 163.5t-163.5 109.5q-93 40 -199 40v0zM716 606l-46 46
l-158 -159l-158 159l-46 -46l159 -158l-159 -158l46 -46l158 159l158 -159l46 46l-159 158z" />
  </g>

</svg>
