<?xml version="1.0" encoding="UTF-8" standalone="no"?>
<svg
   width="1024"
   height="1024"
   viewBox="0 0 1024 1024"
   fill="none"
   version="1.1"
   id="svg7015"
   sodipodi:docname="Settings.svg"
   inkscape:version="1.2.2 (b0a8486541, 2022-12-01)"
   xmlns:inkscape="http://www.inkscape.org/namespaces/inkscape"
   xmlns:sodipodi="http://sodipodi.sourceforge.net/DTD/sodipodi-0.dtd"
   xmlns="http://www.w3.org/2000/svg"
   xmlns:svg="http://www.w3.org/2000/svg">
  <defs
     id="defs7019" />
  <sodipodi:namedview
     id="namedview7017"
     pagecolor="#ffffff"
     bordercolor="#000000"
     borderopacity="0.25"
     inkscape:showpageshadow="2"
     inkscape:pageopacity="0.0"
     inkscape:pagecheckerboard="true"
     inkscape:deskcolor="#d1d1d1"
     showgrid="false"
     inkscape:zoom="1.3037281"
     inkscape:cx="584.09417"
     inkscape:cy="468.27248"
     inkscape:window-width="3774"
     inkscape:window-height="2091"
     inkscape:window-x="0"
     inkscape:window-y="0"
     inkscape:window-maximized="1"
     inkscape:current-layer="svg7015" />
  <mask
     id="mask0_4107_8185"
     maskUnits="userSpaceOnUse"
     x="8"
     y="8"
     width="16"
     height="16">
    <rect
       x="8"
       y="8"
       width="16"
       height="16"
       fill="#d9d9d9"
       id="rect7008" />
  </mask>
  <g
     mask="url(#mask0_4107_8185)"
     id="g7013"
     transform="matrix(69.373875,0,0,69.373875,-598.37514,-597.97826)"
     style="fill:#000000">
    <path
       id="path7027"
       style="fill:#000000;fill-opacity:1"
       d="M 14.733687 9.3335092 C 14.555587 9.3335092 14.40279 9.3916227 14.27529 9.5078926 C 14.14729 9.6246925 14.072095 9.7721586 14.049695 9.9502984 L 13.866499 11.433487 C 13.7556 11.500187 13.633408 11.572398 13.500108 11.650298 C 13.366808 11.727598 13.244589 11.799592 13.133689 11.866292 L 11.750502 11.28309 C 11.583602 11.21639 11.416606 11.210811 11.249706 11.266311 C 11.083306 11.322311 10.955607 11.427895 10.866507 11.583095 L 9.6168809 13.766295 C 9.527811 13.921995 9.5027527 14.083096 9.5416826 14.249495 C 9.5806126 14.416395 9.6667466 14.55541 9.8000765 14.66631 L 10.966509 15.566296 L 10.966509 16.433512 L 9.8000765 17.333498 C 9.6667466 17.444398 9.5806126 17.583412 9.5416826 17.750312 C 9.5027527 17.916712 9.527811 18.077813 9.6168809 18.233513 L 10.866507 20.416713 C 10.955607 20.571912 11.083306 20.677497 11.249706 20.733497 C 11.416606 20.788997 11.583602 20.783389 11.750502 20.716689 L 13.133689 20.133487 C 13.244589 20.200187 13.366808 20.272398 13.500108 20.350298 C 13.633408 20.427598 13.7556 20.499593 13.866499 20.566293 L 14.049695 22.049509 C 14.072095 22.227609 14.14729 22.375087 14.27529 22.491887 C 14.40279 22.608187 14.555587 22.666299 14.733687 22.666299 L 17.266498 22.666299 C 17.444598 22.666299 17.597395 22.608187 17.724895 22.491887 C 17.852895 22.375087 17.92809 22.227609 17.95049 22.049509 L 18.133714 20.566293 C 18.244614 20.499593 18.366805 20.427598 18.500105 20.350298 C 18.633405 20.272398 18.755596 20.200187 18.866496 20.133487 L 20.249711 20.716689 C 20.416611 20.783389 20.583608 20.788997 20.750507 20.733497 C 20.916907 20.677497 21.044606 20.571912 21.133706 20.416713 L 22.400112 18.233513 C 22.489212 18.077813 22.516906 17.916712 22.483306 17.750312 C 22.450206 17.583412 22.361388 17.444398 22.216888 17.333498 L 21.049696 16.433512 L 21.049696 15.566296 L 22.216888 14.66631 C 22.361388 14.55541 22.450206 14.416395 22.483306 14.249495 C 22.516906 14.083096 22.489212 13.921995 22.400112 13.766295 L 21.133706 11.583095 C 21.044606 11.427895 20.916907 11.322311 20.750507 11.266311 C 20.583608 11.210811 20.416611 11.21639 20.249711 11.28309 L 18.866496 11.866292 C 18.755596 11.799592 18.633405 11.727598 18.500105 11.650298 C 18.366805 11.572398 18.244614 11.500187 18.133714 11.433487 L 17.95049 9.9502984 C 17.92809 9.7721586 17.852895 9.6246925 17.724895 9.5078926 C 17.597395 9.3916227 17.444598 9.3335092 17.266498 9.3335092 L 14.733687 9.3335092 z M 15.333697 10.733504 L 16.666489 10.733504 L 16.883299 12.48311 C 17.205399 12.57221 17.51369 12.702793 17.808089 12.875092 C 18.102489 13.047392 18.377694 13.261214 18.633694 13.516713 L 20.249711 12.816702 L 20.916895 13.916692 L 19.500093 15.016709 C 19.544393 15.194309 19.577695 15.363613 19.600095 15.524713 C 19.622495 15.685813 19.63371 15.84419 19.63371 15.99989 C 19.63371 16.17749 19.622495 16.349806 19.600095 16.516706 C 19.577695 16.683105 19.538813 16.844206 19.483313 16.999906 L 20.900088 18.083088 L 20.233692 19.183106 L 18.616886 18.499902 C 18.372086 18.744202 18.099793 18.955399 17.800094 19.133499 C 17.500394 19.311099 17.189191 19.444406 16.866492 19.533506 L 16.666489 21.266304 L 15.333697 21.266304 L 15.116914 19.516698 C 14.794814 19.427598 14.486496 19.296987 14.192096 19.124687 C 13.897696 18.952387 13.628099 18.744202 13.383299 18.499902 L 11.766494 19.183106 L 11.100098 18.083088 L 12.500092 16.983098 C 12.455792 16.805498 12.42249 16.636194 12.40009 16.475095 C 12.377691 16.313995 12.366503 16.15559 12.366503 15.99989 C 12.366503 15.84419 12.377691 15.683089 12.40009 15.516689 C 12.42249 15.34979 12.455792 15.177502 12.500092 14.999902 L 11.100098 13.916692 L 11.766494 12.816702 L 13.383299 13.499906 C 13.628099 13.255606 13.897696 13.047392 14.192096 12.875092 C 14.486496 12.702793 14.794814 12.57221 15.116914 12.48311 L 15.333697 10.733504 z M 16.000093 13.616687 C 15.344593 13.616687 14.7836 13.849999 14.316901 14.316698 C 13.850201 14.783398 13.616889 15.34439 13.616889 15.99989 C 13.616889 16.655389 13.850201 17.21641 14.316901 17.68311 C 14.7836 18.149809 15.344593 18.383093 16.000093 18.383093 C 16.655592 18.383093 17.216613 18.149809 17.683312 17.68311 C 18.150012 17.21641 18.383296 16.655389 18.383296 15.99989 C 18.383296 15.34439 18.150012 14.783398 17.683312 14.316698 C 17.216613 13.849999 16.655592 13.616687 16.000093 13.616687 z M 15.993842 15.016709 C 15.995922 15.016698 15.998009 15.016709 16.000093 15.016709 C 16.266792 15.016709 16.497408 15.113802 16.692108 15.307902 C 16.886208 15.502602 16.983301 15.73319 16.983301 15.99989 C 16.983301 16.26659 16.886208 16.497206 16.692108 16.691906 C 16.497408 16.886005 16.266792 16.983098 16.000093 16.983098 C 15.733393 16.983098 15.502805 16.886005 15.308105 16.691906 C 15.114005 16.497206 15.016912 16.26659 15.016912 15.99989 C 15.016912 15.73319 15.114005 15.502602 15.308105 15.307902 C 15.501284 15.115319 15.729786 15.018215 15.993842 15.016709 z " />
  </g>
</svg>
