<?xml version="1.0" standalone="no"?>
<!DOCTYPE svg PUBLIC "-//W3C//DTD SVG 1.1//EN" "http://www.w3.org/Graphics/SVG/1.1/DTD/svg11.dtd" >
<svg xmlns="http://www.w3.org/2000/svg" xmlns:xlink="http://www.w3.org/1999/xlink" version="1.1" viewBox="0 -64 1024 1024">
  <g transform="matrix(1 0 0 -1 0 960)">
   <path fill="currentColor"
d="M939 853v-350q0 -8 -4 -16t-10 -14l-465 -450q-6 -6 -13.5 -9t-15.5 -3q-9 0 -17 3t-14 10l-303 304q-12 13 -11.5 30.5t12.5 30.5l471 452q7 6 13.5 9t14.5 3h342v0zM981 896h-384v0v0q-16 0 -30.5 -6t-26.5 -18l-471 -453q-26 -24 -26.5 -59.5t24.5 -60.5l302 -305
q13 -13 29 -19.5t33 -6.5q16 0 31 6t28 18l464 450q13 12 20 28t7 33v393v0zM469 617q-4 0 -7.5 -1.5t-7.5 -4.5q-6 -6 -6 -15t6 -15l208 -214q3 -4 7 -5.5t8 -1.5t8 1.5t7 4.5q6 6 6.5 15t-6.5 15l-207 215q-4 3 -8 4.5t-8 1.5v0v0zM377 528q-4 0 -7.5 -1.5t-6.5 -4.5
q-7 -6 -7 -15t6 -15l208 -215q3 -3 7 -4.5t8 -1.5t8 1.5t7 4.5v0q6 6 6.5 15t-5.5 15l-208 215q-3 3 -7 4.5t-9 1.5v0v0zM285 439q-4 0 -7.5 -1.5t-6.5 -4.5q-7 -6 -7 -15t6 -15l208 -215q3 -3 7 -4.5t8 -1.5t8 1.5t7 4.5q6 6 6.5 15t-5.5 15l-208 215q-3 3 -7 4.5t-9 1.5v0
v0zM811 768q8 0 16 -3.5t14 -9.5t9 -14t3 -16q0 -9 -3.5 -16.5t-9.5 -13.5t-13.5 -9t-15.5 -3q-9 0 -17 3t-14 10q-6 6 -9 13.5t-3 16.5t3.5 16.5t9.5 13.5t13.5 9t16.5 3zM811 811q-16 0 -31.5 -6t-28.5 -18q-25 -25 -25.5 -60.5t23.5 -60.5q13 -13 29 -19.5t33 -6.5
q16 0 31.5 6t27.5 18q25 25 26 60t-24 61q-13 13 -29 19.5t-32 6.5v0v0z" />
  </g>

</svg>
