<?xml version="1.0" standalone="no"?>
<!DOCTYPE svg PUBLIC "-//W3C//DTD SVG 1.1//EN" "http://www.w3.org/Graphics/SVG/1.1/DTD/svg11.dtd" >
<svg xmlns="http://www.w3.org/2000/svg" xmlns:xlink="http://www.w3.org/1999/xlink" version="1.1" viewBox="-10 0 1044 1024">
  <g transform="matrix(1 0 0 -1 0 960)">
   <path fill="currentColor"
d="M512 320h-192l224 -320l224 320h-192v256h-64v-256zM832 640h-1.5h-1.5q-6 54 -31 100q-24 47 -62 81.5t-87 54.5t-105 20q-76 0 -139.5 -36.5t-102.5 -96.5q-11 2 -22.5 3.5t-23.5 1.5q-53 0 -100 -20q-46 -20 -81 -55t-55 -81q-20 -47 -20 -100t20 -100q20 -46 55 -81
t81 -55q47 -20 100 -20h13h18l-46 66q-74 5 -125.5 60t-51.5 130q0 79 56.5 135.5t135.5 56.5q8 0 16.5 -1t18.5 -3l42 -7l23 36q31 48 81 75.5t107 27.5q43 0 81 -15t67.5 -42t48.5 -63q19 -37 24 -79l7 -58l58 1h2.5h2.5q52 -1 88.5 -38.5t36.5 -89.5q0 -49 -32.5 -85
t-80.5 -41l-46 -66h18h13q80 0 136 56t56 136t-56 136t-136 56v0z" />
  </g>

</svg>
