<?xml version="1.0" encoding="UTF-8" standalone="no"?>
<svg
   width="1024"
   height="1024"
   viewBox="0 0 1024 1024"
   fill="none"
   version="1.1"
   id="svg6"
   sodipodi:docname="filter.svg"
   inkscape:version="1.2.2 (b0a8486541, 2022-12-01)"
   xmlns:inkscape="http://www.inkscape.org/namespaces/inkscape"
   xmlns:sodipodi="http://sodipodi.sourceforge.net/DTD/sodipodi-0.dtd"
   xmlns="http://www.w3.org/2000/svg"
   xmlns:svg="http://www.w3.org/2000/svg">
  <defs
     id="defs3230" />
  <sodipodi:namedview
     id="namedview3228"
     pagecolor="#ffffff"
     bordercolor="#000000"
     borderopacity="0.25"
     inkscape:showpageshadow="2"
     inkscape:pageopacity="0.0"
     inkscape:pagecheckerboard="true"
     inkscape:deskcolor="#d1d1d1"
     showgrid="false"
     inkscape:zoom="0.56562405"
     inkscape:cx="-303.20493"
     inkscape:cy="310.27676"
     inkscape:window-width="3774"
     inkscape:window-height="2091"
     inkscape:window-x="0"
     inkscape:window-y="0"
     inkscape:window-maximized="1"
     inkscape:current-layer="svg6" />
  <path
     id="path6999"
     style="stroke-width:62.778;fill:#000000"
     d="M 359.88086 103.48633 C 268.70213 103.48633 192.65679 168.28185 175.27734 254.33789 C 174.05002 254.21731 172.80556 254.1543 171.54688 254.1543 L 58.546875 254.1543 C 37.744137 254.1543 20.878906 271.01757 20.878906 291.82031 C 20.878906 312.62304 37.744137 329.48828 58.546875 329.48828 L 171.54688 329.48828 C 172.80556 329.48828 174.05002 329.42729 175.27734 329.30664 C 192.65679 415.36142 268.70213 480.15625 359.88086 480.15625 C 451.05895 480.15625 527.10492 415.36142 544.48438 329.30664 C 545.71169 329.42722 546.95552 329.48828 548.21484 329.48828 L 962.55078 329.48828 C 983.34916 329.48828 1000.2168 312.62304 1000.2168 291.82031 C 1000.2168 271.01757 983.34916 254.1543 962.55078 254.1543 L 548.21484 254.1543 C 546.95552 254.1543 545.71169 254.21741 544.48438 254.33789 C 527.10492 168.28185 451.05895 103.48633 359.88086 103.48633 z M 359.88086 178.82031 C 422.28907 178.82031 472.88086 229.41209 472.88086 291.82031 C 472.88086 354.22914 422.28907 404.82227 359.88086 404.82227 C 297.47201 404.82227 246.88086 354.22914 246.88086 291.82031 C 246.88086 229.41209 297.47201 178.82031 359.88086 178.82031 z M 661.21484 555.48828 C 570.03609 555.48828 493.99078 620.28185 476.61133 706.33789 C 475.38401 706.21853 474.13955 706.15625 472.88086 706.15625 L 58.546875 706.15625 C 37.744137 706.15625 20.878906 723.02392 20.878906 743.82227 C 20.878906 764.6206 37.744137 781.49023 58.546875 781.49023 L 472.88086 781.49023 C 474.13955 781.49023 475.38401 781.42782 476.61133 781.30859 C 493.99078 867.36463 570.03609 932.15625 661.21484 932.15625 C 752.39356 932.15625 828.44338 867.36463 845.82031 781.30859 C 847.05077 781.42794 848.29327 781.49023 849.54883 781.49023 L 962.55078 781.49023 C 983.34916 781.49023 1000.2168 764.6206 1000.2168 743.82227 C 1000.2168 723.02392 983.34916 706.15625 962.55078 706.15625 L 849.54883 706.15625 C 848.29327 706.15625 847.05077 706.21865 845.82031 706.33789 C 828.44338 620.28185 752.39356 555.48828 661.21484 555.48828 z M 661.21484 630.82227 C 723.62241 630.82227 774.21484 681.41467 774.21484 743.82227 C 774.21484 806.22983 723.62241 856.82422 661.21484 856.82422 C 598.80727 856.82422 548.21484 806.22983 548.21484 743.82227 C 548.21484 681.41467 598.80727 630.82227 661.21484 630.82227 z " />
</svg>
