<?xml version="1.0" standalone="no"?>
<!DOCTYPE svg PUBLIC "-//W3C//DTD SVG 1.1//EN" "http://www.w3.org/Graphics/SVG/1.1/DTD/svg11.dtd" >
<svg xmlns="http://www.w3.org/2000/svg" xmlns:xlink="http://www.w3.org/1999/xlink" version="1.1" viewBox="-10 0 1034 1024">
  <g transform="matrix(1 0 0 -1 0 960)">
   <path fill="currentColor"
d="M725 427q0 -44 -16 -83q-17 -39 -46 -68t-68 -46t-83 -17t-83 17t-68 46t-46 68q-16 39 -16 83t16 83q17 39 46 67.5t68 45.5t83 17t83 -17t68 -45.5t46 -67.5q16 -39 16 -83zM853 811q18 0 30.5 -12.5t12.5 -30.5v-683q0 -17 -12.5 -29.5t-30.5 -12.5h-682
q-18 0 -30.5 12.5t-12.5 29.5v683q0 18 12.5 30.5t30.5 12.5h682v0zM853 853h-682q-36 0 -61 -25t-25 -60v-683q0 -35 25 -60t61 -25h682q36 0 61 25t25 60v683q0 35 -25 60t-61 25v0z" />
  </g>

</svg>
