<?xml version="1.0" encoding="UTF-8" standalone="no"?>
<svg
   version="1.1"
   viewBox="-10 0 1034 1024"
   id="svg6"
   sodipodi:docname="numbers.svg"
   inkscape:version="1.2.2 (b0a8486541, 2022-12-01)"
   xmlns:inkscape="http://www.inkscape.org/namespaces/inkscape"
   xmlns:sodipodi="http://sodipodi.sourceforge.net/DTD/sodipodi-0.dtd"
   xmlns="http://www.w3.org/2000/svg"
   xmlns:svg="http://www.w3.org/2000/svg">
  <defs
     id="defs10" />
  <sodipodi:namedview
     id="namedview8"
     pagecolor="#ffffff"
     bordercolor="#000000"
     borderopacity="0.25"
     inkscape:showpageshadow="2"
     inkscape:pageopacity="0.0"
     inkscape:pagecheckerboard="0"
     inkscape:deskcolor="#d1d1d1"
     showgrid="false"
     inkscape:zoom="0.23046875"
     inkscape:cx="527.18644"
     inkscape:cy="518.50847"
     inkscape:window-width="1868"
     inkscape:window-height="1011"
     inkscape:window-x="0"
     inkscape:window-y="0"
     inkscape:window-maximized="1"
     inkscape:current-layer="svg6" />
  <g
     aria-label="1"
     id="text170"
     style="font-weight:bold;font-size:533.333px;-inkscape-font-specification:'sans-serif, Bold'">
    <path
       d="M 258.23263,454.47461 H 177.69935 V 234.20808 q 0,-13.86666 0.53333,-36.26665 1.06667,-22.39998 1.6,-39.46664 -2.66667,3.2 -11.73333,11.73333 -8.53333,7.99999 -15.99999,14.39999 L 108.36606,219.80809 69.432746,171.27478 192.09934,73.674842 h 66.13329 z"
       id="path404" />
  </g>
  <g
     aria-label="2"
     id="text170-9"
     style="font-weight:bold;font-size:533.333px;-inkscape-font-specification:'sans-serif, Bold'">
    <path
       d="M 624.35156,690.41522 H 358.21839 V 634.41526 L 453.685,537.88198 q 28.79998,-29.86665 46.39997,-49.59997 17.59999,-20.26665 25.59999,-36.26664 7.99999,-16.53333 7.99999,-35.19998 0,-22.93332 -12.79999,-34.13331 -12.26666,-11.2 -33.59998,-11.2 -21.86665,0 -42.66664,10.13333 -20.79999,10.13333 -43.73331,28.79998 l -43.7333,-51.7333 q 16.53332,-14.39999 34.66664,-26.66665 18.66666,-12.26666 42.66664,-19.73332 24.53332,-8 58.66663,-8 37.33331,0 63.99996,13.86666 27.19999,13.33333 41.59998,36.79998 14.93332,22.93332 14.93332,52.26664 0,31.46664 -12.79999,57.59996 -12.26666,26.13332 -36.26664,51.7333 -23.46666,25.59999 -57.06664,56.5333 L 458.485,618.9486 v 3.73333 h 165.86656 z"
       id="path401" />
  </g>
  <g
     aria-label="3"
     id="text170-9-0"
     style="font-weight:bold;font-size:533.333px;-inkscape-font-specification:'sans-serif, Bold'">
    <path
       d="m 930.17086,647.84192 q 0,39.46665 -23.99998,62.9333 -23.46666,23.46665 -58.1333,31.99998 v 1.6 q 45.86664,5.33333 69.33329,27.73332 23.99999,22.39998 23.99999,60.26663 0,33.06664 -16.53333,59.73329 -15.99999,26.13332 -50.1333,41.59998 -33.59998,14.93332 -86.93328,14.93332 -61.86663,0 -109.8666,-20.79999 v -68.26662 q 24.53332,12.26666 51.19997,18.66665 27.19998,6.4 50.1333,6.4 43.19997,0 60.26663,-14.93332 17.59999,-14.93333 17.59999,-42.13331 0,-15.99999 -7.99999,-26.66665 -8,-11.2 -28.26665,-16.53333 -19.73333,-5.86666 -55.46664,-5.86666 h -28.79998 v -61.86663 h 29.33332 q 35.19997,0 53.3333,-6.39999 18.66665,-6.93333 25.06665,-18.13333 6.93333,-11.73332 6.93333,-26.66665 0,-20.26665 -12.8,-31.46664 -12.26665,-11.73333 -41.59997,-11.73333 -27.19998,0 -47.46664,9.59999 -19.73332,9.06667 -33.59998,18.13333 l -37.33331,-55.46664 q 22.39999,-15.99999 52.26664,-26.66665 30.39998,-10.66666 71.99995,-10.66666 58.66663,0 92.79995,23.99999 34.66664,23.46665 34.66664,66.66662 z"
       id="path398" />
  </g>
</svg>
