<svg xmlns="http://www.w3.org/2000/svg" viewBox="0 0 1024 1024">
<path fill="#333333" d="M896 576v-384c0-70.723-57.281-128-128-128h-512c-70.719 0-128 57.277-128 128v384c-35.199 0-64 28.801-64 64v256c0 35.199 28.801 64 64 64h768c35.199 0 64-28.801 64-64v-256c0-35.199-28.801-64-64-64zM192 192c0-35.266 28.734-64 64-64h512c35.266 0 64 28.734 64 64v384h-640v-384zM896 896h-768v-256h768v256z"></path>
<path fill="#333333" d="M832 768c0 35.346-28.654 64-64 64s-64-28.654-64-64c0-35.346 28.654-64 64-64s64 28.654 64 64z"></path>
<path fill="#333333" d="M352 320h320c17.672 0 32-14.328 32-32s-14.328-32-32-32h-320c-17.672 0-32 14.328-32 32s14.328 32 32 32z"></path>
</svg>