<?xml version="1.0" encoding="UTF-8" standalone="no"?>
<svg
   width="1024"
   height="1024"
   viewBox="0 0 1024 1024"
   fill="none"
   version="1.1"
   id="svg14457"
   sodipodi:docname="print.svg"
   inkscape:version="1.2.2 (b0a8486541, 2022-12-01)"
   xmlns:inkscape="http://www.inkscape.org/namespaces/inkscape"
   xmlns:sodipodi="http://sodipodi.sourceforge.net/DTD/sodipodi-0.dtd"
   xmlns="http://www.w3.org/2000/svg"
   xmlns:svg="http://www.w3.org/2000/svg">
  <sodipodi:namedview
     id="namedview14459"
     pagecolor="#ffffff"
     bordercolor="#000000"
     borderopacity="0.25"
     inkscape:showpageshadow="2"
     inkscape:pageopacity="0.0"
     inkscape:pagecheckerboard="true"
     inkscape:deskcolor="#d1d1d1"
     showgrid="false"
     inkscape:zoom="0.65186407"
     inkscape:cx="128.09419"
     inkscape:cy="149.57106"
     inkscape:window-width="3774"
     inkscape:window-height="2091"
     inkscape:window-x="0"
     inkscape:window-y="0"
     inkscape:window-maximized="1"
     inkscape:current-layer="svg14457"
     showborder="true" />
  <g
     clip-path="url(#clip0_4107_8191)"
     id="g14450"
     style="fill:#000000"
     transform="matrix(63.026377,0,0,63.026377,-496.21102,-496.21102)">
    <g
       mask="url(#mask0_4107_8191)"
       id="g14448"
       style="fill:#000000">
      <path
         id="path24517"
         style="fill:#000000"
         d="M 12.800012 8.0000001 C 12.210912 8.0000001 11.733308 8.4775646 11.733308 9.0666728 L 11.733308 11.733308 L 9.0666728 11.733308 C 8.4775646 11.733308 8.0000001 12.210912 8.0000001 12.800012 L 8.0000001 21.3333 C 8.0000001 21.9225 8.4775646 22.400004 9.0666728 22.400004 L 11.733308 22.400004 C 11.438808 22.400004 10.703109 20.985914 10.703109 20.985914 C 10.703109 21.177811 10.547589 21.3333 10.355692 21.3333 L 9.4666789 21.3333 C 9.2457595 21.3333 9.0666728 21.154194 9.0666728 20.933294 L 9.0666728 13.199987 C 9.0666728 12.979087 9.2457595 12.800012 9.4666789 12.800012 L 22.533288 12.800012 C 22.754188 12.800012 22.933294 12.979087 22.933294 13.199987 L 22.933294 20.933294 C 22.933294 21.154194 22.754188 21.3333 22.533288 21.3333 L 21.638015 21.3333 C 21.453915 21.3333 21.304697 21.184111 21.304697 21.000014 C 21.304697 21.000014 20.561187 22.400004 20.26669 22.400004 L 22.933294 22.400004 C 23.522491 22.400004 23.999998 21.9225 23.999998 21.3333 L 23.999998 12.800012 C 23.999998 12.210912 23.522491 11.733308 22.933294 11.733308 L 20.26669 11.733308 L 20.26669 9.0666728 C 20.26669 8.4775646 19.789083 8.0000001 19.199986 8.0000001 L 12.800012 8.0000001 z M 13.199987 9.0666728 L 18.800011 9.0666728 C 19.020911 9.0666728 19.199986 9.2457595 19.199986 9.4666789 L 19.199986 11.333302 C 19.199986 11.554202 19.020911 11.733308 18.800011 11.733308 L 13.199987 11.733308 C 12.979087 11.733308 12.800012 11.554202 12.800012 11.333302 L 12.800012 9.4666789 C 12.800012 9.2457595 12.979087 9.0666728 13.199987 9.0666728 z " />
      <path
         id="path24522"
         style="fill:#000000"
         d="M 11.733494 18.700195 C 11.162795 18.700195 10.700196 19.162893 10.700196 19.733493 L 10.700196 22.933511 C 10.700196 23.50421 11.162795 23.966901 11.733494 23.966901 L 20.266907 23.966901 C 20.837506 23.966901 21.300204 23.50421 21.300204 22.933511 L 21.300204 19.733493 C 21.300204 19.162893 20.837506 18.700195 20.266907 18.700195 L 11.733494 18.700195 z M 12.100187 19.699188 L 19.900214 19.699188 C 20.121113 19.699188 20.300189 19.878294 20.300189 20.099194 L 20.300189 22.557211 C 20.300189 22.778111 20.121113 22.957186 19.900214 22.957186 L 12.100187 22.957186 C 11.879287 22.957186 11.700212 22.778111 11.700212 22.557211 L 11.700212 20.099194 C 11.700212 19.878294 11.879287 19.699188 12.100187 19.699188 z " />
      <g
         id="path14446">
        <path
           style="color:#000000;stroke-linecap:round;-inkscape-stroke:none"
           d="M 20.8,15.4668 H 18.1333"
           id="path15713" />
        <path
           style="color:#000000;stroke-linecap:round;-inkscape-stroke:none;fill:#000000"
           d="m 18.132812,14.966797 a 0.5,0.5 0 0 0 -0.5,0.5 0.5,0.5 0 0 0 0.5,0.5 h 2.667969 a 0.5,0.5 0 0 0 0.5,-0.5 0.5,0.5 0 0 0 -0.5,-0.5 z"
           id="path15715" />
      </g>
    </g>
  </g>
</svg>
