<?xml version="1.0" standalone="no"?>
<!DOCTYPE svg PUBLIC "-//W3C//DTD SVG 1.1//EN" "http://www.w3.org/Graphics/SVG/1.1/DTD/svg11.dtd" >
<svg xmlns="http://www.w3.org/2000/svg" xmlns:xlink="http://www.w3.org/1999/xlink" version="1.1" viewBox="-10 0 1034 1024">
  <g transform="matrix(1 0 0 -1 0 960)">
   <path fill="currentColor"
d="M929 69l1 1l-270 269q31 41 48.5 90.5t17.5 103.5q0 67 -26 125q-25 58 -68.5 101.5t-101.5 68.5t-125 25q-66 0 -124 -25t-101.5 -68.5t-69.5 -101.5q-25 -58 -25 -125q0 -66 25 -124q26 -59 69.5 -102t101.5 -69q58 -25 124 -25q55 0 104.5 17.5t89.5 48.5l270 -270
l1 1q6 -5 12.5 -7.5t13.5 -2.5q8 0 16 3t14 9q12 12 12.5 28.5t-9.5 28.5v0zM128 533q0 58 22 108q22 51 59.5 88.5t88.5 59.5q50 22 107 22q58 0 108 -22q51 -22 88.5 -59.5t59.5 -88.5q22 -50 22 -108q0 -57 -22 -108q-22 -50 -59.5 -87.5t-88.5 -59.5q-50 -22 -108 -22
q-57 0 -107 22q-51 22 -88.5 59.5t-59.5 87.5q-22 51 -22 108v0z" />
  </g>

</svg>
