<?xml version="1.0" standalone="no"?>
<!DOCTYPE svg PUBLIC "-//W3C//DTD SVG 1.1//EN" "http://www.w3.org/Graphics/SVG/1.1/DTD/svg11.dtd" >
<svg xmlns="http://www.w3.org/2000/svg" xmlns:xlink="http://www.w3.org/1999/xlink" version="1.1" viewBox="-10 0 1034 1024">
  <g transform="matrix(1 0 0 -1 0 960)">
   <path fill="currentColor"
d="M192 128q-26 0 -45 19t-19 45v512q0 26 19 45t45 19h640q26 0 45 -19t19 -45v-512q0 -26 -19 -45t-45 -19h-640zM192 64h640q53 0 90.5 37.5t37.5 90.5v512q0 53 -37.5 90.5t-90.5 37.5h-640q-53 0 -90.5 -37.5t-37.5 -90.5v-512q0 -53 37.5 -90.5t90.5 -37.5v0zM288 576
h448q13 0 22.5 9.5t9.5 22.5t-9.5 22.5t-22.5 9.5h-448q-13 0 -22.5 -9.5t-9.5 -22.5t9.5 -22.5t22.5 -9.5zM288 448h448q13 0 22.5 9.5t9.5 22.5t-9.5 22.5t-22.5 9.5h-448q-13 0 -22.5 -9.5t-9.5 -22.5t9.5 -22.5t22.5 -9.5zM288 320h448q13 0 22.5 9.5t9.5 22.5
t-9.5 22.5t-22.5 9.5h-448q-13 0 -22.5 -9.5t-9.5 -22.5t9.5 -22.5t22.5 -9.5z" />
  </g>

</svg>
