<?xml version="1.0" standalone="no"?>
<!DOCTYPE svg PUBLIC "-//W3C//DTD SVG 1.1//EN" "http://www.w3.org/Graphics/SVG/1.1/DTD/svg11.dtd" >
<svg xmlns="http://www.w3.org/2000/svg" xmlns:xlink="http://www.w3.org/1999/xlink" version="1.1" viewBox="-10 0 1034 1024">
  <g transform="matrix(1 0 0 -1 0 960)">
   <path fill="currentColor"
d="M512 853q3 0 10 -2t11 -10l403 -805q4 -8 2.5 -14.5t-3.5 -9.5t-6.5 -7.5t-14.5 -4.5h-804q-10 0 -14.5 4.5t-6.5 7.5t-3.5 9.5t3.5 15.5l402 803q4 9 11 11t10 2v0zM512 896q-17 0 -33.5 -9t-25.5 -26l-402 -805q-18 -34 1.5 -66.5t57.5 -32.5h804q38 0 57.5 32.5
t1.5 66.5l-402 805q-9 17 -25 26t-34 9v0v0zM555 128q0 -18 -12.5 -30.5t-30.5 -12.5t-30.5 12.5t-12.5 30.5t12.5 30.5t30.5 12.5t30.5 -12.5t12.5 -30.5zM555 299q0 -18 -12.5 -30.5t-30.5 -12.5t-30.5 12.5t-12.5 30.5v298q0 18 12.5 30.5t30.5 12.5t30.5 -12.5
t12.5 -30.5v-298z" />
  </g>

</svg>
