<?xml version="1.0" encoding="UTF-8" standalone="no"?>
<svg
   width="1024"
   height="1024"
   viewBox="0 0 1024 1024"
   fill="none"
   version="1.1"
   id="svg298"
   sodipodi:docname="zoom-out.svg"
   inkscape:version="1.2.2 (b0a8486541, 2022-12-01)"
   xmlns:inkscape="http://www.inkscape.org/namespaces/inkscape"
   xmlns:sodipodi="http://sodipodi.sourceforge.net/DTD/sodipodi-0.dtd"
   xmlns="http://www.w3.org/2000/svg"
   xmlns:svg="http://www.w3.org/2000/svg">
  <defs
     id="defs302" />
  <sodipodi:namedview
     id="namedview300"
     pagecolor="#ffffff"
     bordercolor="#000000"
     borderopacity="0.25"
     inkscape:showpageshadow="2"
     inkscape:pageopacity="0.0"
     inkscape:pagecheckerboard="0"
     inkscape:deskcolor="#d1d1d1"
     showgrid="false"
     inkscape:zoom="1.0535195"
     inkscape:cx="-45.086967"
     inkscape:cy="172.27967"
     inkscape:window-width="1388"
     inkscape:window-height="831"
     inkscape:window-x="0"
     inkscape:window-y="0"
     inkscape:window-maximized="1"
     inkscape:current-layer="svg298" />
  <rect
     width="32"
     height="32"
     fill="#ffffff"
     fill-opacity="0.01"
     id="rect292"
     x="0"
     y="0" />
  <rect
     width="16"
     height="16"
     fill="#ffffff"
     fill-opacity="0.01"
     id="rect294"
     x="8"
     y="8" />
  <path
     fill-rule="evenodd"
     clip-rule="evenodd"
     d="M 512.00173,22.000157 C 241.38352,22.000157 22,241.38368 22,512.00189 22,782.6201 241.38352,1002.0071 512.00173,1002.0071 782.61994,1002.0071 1002,782.6201 1002,512.00189 1002,241.38368 782.61994,22.000157 512.00173,22.000157 Z M 92.286509,512.00189 c 0,-231.80289 187.912321,-419.714525 419.715221,-419.714525 231.8029,0 419.71314,187.911635 419.71314,419.714525 0,231.79596 -187.91024,419.72007 -419.71314,419.72007 -231.8029,0 -419.715221,-187.92411 -419.715221,-419.72007 z M 290.04833,475.03162 c -20.4273,0 -36.99109,16.55686 -36.99109,36.99108 0,20.42729 16.56379,36.99108 36.99109,36.99108 H 733.969 c 20.43423,0 36.99109,-16.56379 36.99109,-36.99108 0,-20.43422 -16.55686,-36.99108 -36.99109,-36.99108 z"
     fill="#1c2024"
     id="path296"
     style="stroke-width:69.3626" />
</svg>
