<?xml version="1.0" encoding="UTF-8"?>
<svg width="100pt" height="100pt" version="1.1" viewBox="0 0 100 100" xmlns="http://www.w3.org/2000/svg">
 <path d="m62.793 48.184c-0.36719 7.25-1.2344 14.465-2.5977 21.598-0.22266 1.1602-1.2383 2-2.4219 2.0039-0.15625 0-0.3125-0.015625-0.46484-0.046875-0.64453-0.12109-1.2109-0.49609-1.5781-1.0352-0.36719-0.54297-0.50391-1.207-0.38281-1.8477 1.3242-6.9062 2.1641-13.895 2.5195-20.918 0.35937-7.207-1-10.188-5.0195-10.984-1.6016-0.4375-3.3164-0.11719-4.6562 0.86328-1.7344 1.3477-2.875 4.0508-3.0508 7.2344-0.31641 7.4219-1.1602 14.812-2.5156 22.117-0.125 0.64453-0.49609 1.2148-1.043 1.582-0.54297 0.36719-1.2109 0.50391-1.8555 0.37891-0.64062-0.125-1.2109-0.50391-1.5742-1.0469-0.36719-0.54688-0.5-1.2148-0.36719-1.8594 1.3125-7.082 2.125-14.246 2.4297-21.441 0.25781-4.6562 2.0625-8.6172 4.9531-10.859v-0.003906c2.4688-1.8555 5.6367-2.5156 8.6445-1.8047 9.6875 1.9297 9.1758 12.203 8.9805 16.07zm-6.332 27.375c-1.3203-0.33594-2.6602 0.45703-3.0078 1.7734-0.46484 1.793-0.98047 3.5703-1.5234 5.3438v-0.003906c-0.19141 0.625-0.12891 1.3047 0.17578 1.8828 0.30859 0.57812 0.83203 1.0117 1.457 1.2031 0.62891 0.19531 1.3047 0.12891 1.8828-0.17969 0.57813-0.30469 1.0117-0.83203 1.2031-1.457 0.56641-1.8438 1.1016-3.6953 1.582-5.5586 0.33984-1.3164-0.45312-2.6641-1.7695-3.0039zm-23.711-18.137c-0.64844-0.10156-1.3086 0.0625-1.8359 0.44922-0.52734 0.39062-0.87891 0.97266-0.97266 1.6211-0.76562 5.1641-1.9102 10.27-3.4258 15.266-0.39844 1.3047 0.33594 2.6836 1.6367 3.082 1.3047 0.40234 2.6836-0.33203 3.082-1.6328 1.5859-5.2305 2.7812-10.57 3.5859-15.977 0.20313-1.3477-0.72266-2.6016-2.0703-2.8086zm-5.5312-11.125-0.003906 0.003906c0.003906-2.9336 0.28906-5.8594 0.86328-8.7383 1.3008-5.2227 4.2969-9.8672 8.5117-13.211 4.2188-3.3477 9.4219-5.2031 14.805-5.2812 1.3633-0.011718 2.457-1.125 2.4453-2.4883-0.011719-1.3633-1.125-2.457-2.4883-2.4453-6.4805 0.097656-12.75 2.3359-17.828 6.3672-5.0781 4.0312-8.6797 9.6289-10.242 15.918-0.65625 3.1953-0.98828 6.4453-0.99219 9.707-0.058593 1.6797-0.11328 3.2656-0.25781 4.8359h-0.003906c-0.48047 5.4453-1.3555 10.848-2.6094 16.168-0.15625 0.63672-0.050781 1.3086 0.29297 1.8672 0.33984 0.5625 0.89062 0.96094 1.5273 1.1133 0.64062 0.15234 1.3125 0.046875 1.8711-0.29688s0.95703-0.89453 1.1055-1.5352c1.3086-5.5508 2.2227-11.188 2.7266-16.867 0.15625-1.707 0.21875-3.4414 0.27344-5.1133zm11.836 25.789c-1.3125-0.34375-2.6602 0.43359-3.0195 1.7461-0.47266 1.7773-1.0352 3.6406-1.7227 5.6914-0.20703 0.62109-0.15625 1.3008 0.13672 1.8867 0.29297 0.58594 0.80469 1.0312 1.4258 1.2344 0.625 0.20703 1.3008 0.16016 1.8867-0.13281 0.58594-0.29297 1.0312-0.80859 1.2344-1.4297 0.71484-2.1484 1.3047-4.1016 1.8047-5.9766h0.003907c0.34766-1.3164-0.43359-2.668-1.75-3.0195zm12.543-31.309h-0.011718c-1.3555 0-2.4609 1.0977-2.4648 2.4531-0.003906 13.23-2.1289 26.375-6.2891 38.93-0.21484 0.62109-0.17188 1.2969 0.11719 1.8867 0.28906 0.58594 0.80078 1.0352 1.418 1.25 0.62109 0.21094 1.3008 0.16406 1.8867-0.125 0.58984-0.28906 1.0391-0.80078 1.2461-1.418 4.3359-13.066 6.5469-26.738 6.5547-40.5 0.003906-0.65625-0.25391-1.2812-0.71484-1.7461-0.46094-0.46484-1.0859-0.73047-1.7422-0.73047zm10.965-24.504c-0.60547-0.24609-1.2852-0.24219-1.8867 0.011718-0.60156 0.25391-1.082 0.73828-1.3281 1.3438-0.24609 0.60547-0.24219 1.2852 0.015625 1.8906 0.25391 0.60156 0.73828 1.0781 1.3438 1.3242 9.7852 3.9766 15.387 13.492 14.992 25.461-0.32031 9.4219-1.4531 18.793-3.3828 28.016-0.13672 0.64063-0.011718 1.3125 0.34766 1.8594 0.35938 0.54687 0.91797 0.92969 1.5625 1.0664 0.64063 0.13281 1.3086 0.007812 1.8555-0.35156s0.92969-0.92188 1.0625-1.5625c1.9922-9.5039 3.1562-19.16 3.4844-28.863 0.46094-13.91-6.4609-25.48-18.066-30.195zm-11.633 6.7578c-6.793 0.25781-13.012 3.8672-16.605 9.6367-2.7148 4.4258-2.9062 9.1406-3.0977 13.695-0.042968 1.1055-0.089843 2.2109-0.17187 3.3164v0.003906c-0.10156 1.3555 0.91406 2.543 2.2734 2.6445 1.3594 0.10547 2.543-0.91406 2.6445-2.2734 0.089844-1.1602 0.13672-2.3281 0.18359-3.4883 0.16797-4.1094 0.32812-7.9883 2.3711-11.32h0.003906c2.8672-4.6562 8-7.4336 13.469-7.2852 5.4648 0.14844 10.438 3.2031 13.047 8.0078 2.2969 4.2383 1.9414 9.1758 1.5664 14.402l-0.0625 0.84766c-0.09375 1.3594 0.92969 2.5391 2.2891 2.6328 0.058594 0.003907 0.11719 0.003907 0.17578 0.003907v0.003906c1.293-0.003906 2.3672-1.0039 2.457-2.293l0.058594-0.83984c0.39453-5.4336 0.83594-11.598-2.1445-17.105-1.8086-3.2891-4.4883-6.0156-7.7461-7.8828-3.2539-1.8672-6.9609-2.8008-10.711-2.707zm17.59 34.133c-1.3477-0.14844-2.5664 0.80859-2.7461 2.1523-0.83984 7.1562-2.1836 14.246-4.0156 21.215-0.16797 0.63281-0.078124 1.3047 0.24609 1.8711 0.32812 0.57031 0.87109 0.98047 1.5039 1.1523 0.63281 0.16797 1.3047 0.078124 1.8711-0.25 0.56641-0.33203 0.98047-0.87109 1.1484-1.5039 1.8906-7.1914 3.2734-14.508 4.1445-21.891 0.16406-1.3555-0.80078-2.582-2.1523-2.7461z" fill="#ff001b"/>
</svg>
